<svg width="28" height="41" viewBox="0 0 28 41" fill="none" xmlns="http://www.w3.org/2000/svg">
<path d="M0.72 26.04C0.72 23.32 1.33333 20.88 2.56 18.72C3.78667 16.5333 5.45333 14.8267 7.56 13.6C9.69333 12.3733 12.0533 11.76 14.64 11.76C17.68 11.76 20.3333 12.4933 22.6 13.96C24.8667 15.4267 26.52 17.5067 27.56 20.2H23.2C22.4267 18.52 21.3067 17.2267 19.84 16.32C18.4 15.4133 16.6667 14.96 14.64 14.96C12.6933 14.96 10.9467 15.4133 9.4 16.32C7.85333 17.2267 6.64 18.52 5.76 20.2C4.88 21.8533 4.44 23.8 4.44 26.04C4.44 28.2533 4.88 30.2 5.76 31.88C6.64 33.5333 7.85333 34.8133 9.4 35.72C10.9467 36.6267 12.6933 37.08 14.64 37.08C16.6667 37.08 18.4 36.64 19.84 35.76C21.3067 34.8533 22.4267 33.56 23.2 31.88H27.56C26.52 34.5467 24.8667 36.6133 22.6 38.08C20.3333 39.52 17.68 40.24 14.64 40.24C12.0533 40.24 9.69333 39.64 7.56 38.44C5.45333 37.2133 3.78667 35.52 2.56 33.36C1.33333 31.2 0.72 28.76 0.72 26.04Z" fill="url(#paint0_linear_2_8)"/>
<path d="M0.72 14.3535C0.72 11.6335 1.33333 9.1935 2.56 7.0335C3.78667 4.84683 5.45333 3.14016 7.56 1.9135C9.69333 0.686831 12.0533 0.0734978 14.64 0.0734978C17.68 0.0734978 20.3333 0.806831 22.6 2.2735C24.8667 3.74016 26.52 5.82016 27.56 8.5135H23.2C22.4267 6.8335 21.3067 5.54016 19.84 4.6335C18.4 3.72683 16.6667 3.2735 14.64 3.2735C12.6933 3.2735 10.9467 3.72683 9.4 4.6335C7.85333 5.54016 6.64 6.8335 5.76 8.5135C4.88 10.1668 4.44 12.1135 4.44 14.3535C4.44 16.5668 4.88 18.5135 5.76 20.1935C6.64 21.8468 7.85333 23.1268 9.4 24.0335C10.9467 24.9402 12.6933 25.3935 14.64 25.3935C16.6667 25.3935 18.4 24.9535 19.84 24.0735C21.3067 23.1668 22.4267 21.8735 23.2 20.1935H27.56C26.52 22.8602 24.8667 24.9268 22.6 26.3935C20.3333 27.8335 17.68 28.5535 14.64 28.5535C12.0533 28.5535 9.69333 27.9535 7.56 26.7535C5.45333 25.5268 3.78667 23.8335 2.56 21.6735C1.33333 19.5135 0.72 17.0735 0.72 14.3535Z" fill="url(#paint1_linear_2_8)"/>
<defs>
<linearGradient id="paint0_linear_2_8" x1="14.14" y1="0.0734978" x2="14.14" y2="40.24" gradientUnits="userSpaceOnUse">
<stop stop-color="white"/>
<stop offset="0.567708" stop-color="#E0F7EC"/>
<stop offset="0.703125" stop-color="#82C9A6"/>
<stop offset="0.848958" stop-color="#175E33"/>
<stop offset="0.994792" stop-color="#0F582D"/>
</linearGradient>
<linearGradient id="paint1_linear_2_8" x1="14.14" y1="0.0734978" x2="14.14" y2="40.24" gradientUnits="userSpaceOnUse">
<stop stop-color="white"/>
<stop offset="0.567708" stop-color="#E0F7EC"/>
<stop offset="0.703125" stop-color="#82C9A6"/>
<stop offset="0.848958" stop-color="#175E33"/>
<stop offset="0.994792" stop-color="#0F582D"/>
</linearGradient>
</defs>
</svg>
