<svg width="822" height="129" viewBox="0 0 822 129" fill="none" xmlns="http://www.w3.org/2000/svg">
<path d="M0.504 50.328C0.504 41.624 2.46667 33.816 6.392 26.904C10.3173 19.9067 15.6507 14.4453 22.392 10.52C29.2187 6.59466 36.7707 4.632 45.048 4.632C54.776 4.632 63.2667 6.97866 70.52 11.672C77.7733 16.3653 83.064 23.0213 86.392 31.64H72.44C69.9653 26.264 66.3813 22.1253 61.688 19.224C57.08 16.3227 51.5333 14.872 45.048 14.872C38.8187 14.872 33.2293 16.3227 28.28 19.224C23.3307 22.1253 19.448 26.264 16.632 31.64C13.816 36.9307 12.408 43.16 12.408 50.328C12.408 57.4107 13.816 63.64 16.632 69.016C19.448 74.3067 23.3307 78.4027 28.28 81.304C33.2293 84.2053 38.8187 85.656 45.048 85.656C51.5333 85.656 57.08 84.248 61.688 81.432C66.3813 78.5307 69.9653 74.392 72.44 69.016H86.392C83.064 77.5493 77.7733 84.1627 70.52 88.856C63.2667 93.464 54.776 95.768 45.048 95.768C36.7707 95.768 29.2187 93.848 22.392 90.008C15.6507 86.0827 10.3173 80.664 6.392 73.752C2.46667 66.84 0.504 59.032 0.504 50.328ZM87.859 59.672C87.859 52.504 89.3097 46.232 92.211 40.856C95.1123 35.3947 99.0803 31.1707 104.115 28.184C109.235 25.1973 114.91 23.704 121.139 23.704C127.283 23.704 132.616 25.0267 137.139 27.672C141.662 30.3173 145.032 33.6453 147.251 37.656V24.856H159.027V95H147.251V81.944C144.947 86.04 141.491 89.4533 136.883 92.184C132.36 94.8293 127.07 96.152 121.011 96.152C114.782 96.152 109.15 94.616 104.115 91.544C99.0803 88.472 95.1123 84.1627 92.211 78.616C89.3097 73.0693 87.859 66.7547 87.859 59.672ZM147.251 59.8C147.251 54.5093 146.184 49.9013 144.051 45.976C141.918 42.0507 139.016 39.064 135.347 37.016C131.763 34.8827 127.795 33.816 123.443 33.816C119.091 33.816 115.123 34.84 111.539 36.888C107.955 38.936 105.096 41.9227 102.963 45.848C100.83 49.7733 99.763 54.3813 99.763 59.672C99.763 65.048 100.83 69.7413 102.963 73.752C105.096 77.6773 107.955 80.7067 111.539 82.84C115.123 84.888 119.091 85.912 123.443 85.912C127.795 85.912 131.763 84.888 135.347 82.84C139.016 80.7067 141.918 77.6773 144.051 73.752C146.184 69.7413 147.251 65.0907 147.251 59.8ZM178.839 36.248C180.887 32.2373 183.788 29.1227 187.543 26.904C191.383 24.6853 196.034 23.576 201.495 23.576V35.608H198.423C185.367 35.608 178.839 42.6907 178.839 56.856V95H167.191V24.856H178.839V36.248ZM267.421 57.24C267.421 59.4587 267.293 61.8053 267.037 64.28H210.973C211.4 71.192 213.746 76.6107 218.013 80.536C222.365 84.376 227.613 86.296 233.757 86.296C238.792 86.296 242.973 85.144 246.301 82.84C249.714 80.4507 252.104 77.2933 253.469 73.368H266.013C264.136 80.1093 260.381 85.6133 254.749 89.88C249.117 94.0613 242.12 96.152 233.757 96.152C227.101 96.152 221.128 94.6587 215.837 91.672C210.632 88.6853 206.536 84.4613 203.549 79C200.562 73.4533 199.069 67.0533 199.069 59.8C199.069 52.5467 200.52 46.1893 203.421 40.728C206.322 35.2667 210.376 31.0853 215.581 28.184C220.872 25.1973 226.93 23.704 233.757 23.704C240.413 23.704 246.301 25.1547 251.421 28.056C256.541 30.9573 260.466 34.968 263.197 40.088C266.013 45.1227 267.421 50.84 267.421 57.24ZM255.389 54.808C255.389 50.3707 254.408 46.5733 252.445 43.416C250.482 40.1733 247.794 37.7413 244.381 36.12C241.053 34.4133 237.341 33.56 233.245 33.56C227.357 33.56 222.322 35.4373 218.141 39.192C214.045 42.9467 211.698 48.152 211.101 54.808H255.389ZM335.276 57.24C335.276 59.4587 335.148 61.8053 334.892 64.28H278.828C279.255 71.192 281.601 76.6107 285.868 80.536C290.22 84.376 295.468 86.296 301.612 86.296C306.647 86.296 310.828 85.144 314.156 82.84C317.569 80.4507 319.959 77.2933 321.324 73.368H333.868C331.991 80.1093 328.236 85.6133 322.604 89.88C316.972 94.0613 309.975 96.152 301.612 96.152C294.956 96.152 288.983 94.6587 283.692 91.672C278.487 88.6853 274.391 84.4613 271.404 79C268.417 73.4533 266.924 67.0533 266.924 59.8C266.924 52.5467 268.375 46.1893 271.276 40.728C274.177 35.2667 278.231 31.0853 283.436 28.184C288.727 25.1973 294.785 23.704 301.612 23.704C308.268 23.704 314.156 25.1547 319.276 28.056C324.396 30.9573 328.321 34.968 331.052 40.088C333.868 45.1227 335.276 50.84 335.276 57.24ZM323.244 54.808C323.244 50.3707 322.263 46.5733 320.3 43.416C318.337 40.1733 315.649 37.7413 312.236 36.12C308.908 34.4133 305.196 33.56 301.1 33.56C295.212 33.56 290.177 35.4373 285.996 39.192C281.9 42.9467 279.553 48.152 278.956 54.808H323.244ZM350.779 36.248C352.827 32.2373 355.728 29.1227 359.483 26.904C363.323 24.6853 367.974 23.576 373.435 23.576V35.608H370.363C357.307 35.608 350.779 42.6907 350.779 56.856V95H339.131V24.856H350.779V36.248ZM400.193 96.152C394.817 96.152 389.996 95.256 385.729 93.464C381.462 91.5867 378.092 89.0267 375.617 85.784C373.142 82.456 371.777 78.6587 371.521 74.392H383.553C383.894 77.8907 385.516 80.7493 388.417 82.968C391.404 85.1867 395.286 86.296 400.065 86.296C404.502 86.296 408.001 85.3147 410.561 83.352C413.121 81.3893 414.401 78.9147 414.401 75.928C414.401 72.856 413.036 70.5947 410.305 69.144C407.574 67.608 403.35 66.1147 397.633 64.664C392.428 63.2987 388.161 61.9333 384.833 60.568C381.59 59.1173 378.774 57.0267 376.385 54.296C374.081 51.48 372.929 47.8107 372.929 43.288C372.929 39.704 373.996 36.4187 376.129 33.432C378.262 30.4453 381.292 28.0987 385.217 26.392C389.142 24.6 393.622 23.704 398.657 23.704C406.422 23.704 412.694 25.6667 417.473 29.592C422.252 33.5173 424.812 38.8933 425.153 45.72H413.505C413.249 42.0507 411.756 39.1067 409.025 36.888C406.38 34.6693 402.796 33.56 398.273 33.56C394.092 33.56 390.764 34.456 388.289 36.248C385.814 38.04 384.577 40.3867 384.577 43.288C384.577 45.592 385.302 47.512 386.753 49.048C388.289 50.4987 390.166 51.6933 392.385 52.632C394.689 53.4853 397.846 54.4667 401.857 55.576C406.892 56.9413 410.988 58.3067 414.145 59.672C417.302 60.952 419.99 62.9147 422.209 65.56C424.513 68.2053 425.708 71.6613 425.793 75.928C425.793 79.768 424.726 83.224 422.593 86.296C420.46 89.368 417.43 91.8 413.505 93.592C409.665 95.2987 405.228 96.152 400.193 96.152ZM426.364 59.672C426.364 52.504 427.815 46.232 430.716 40.856C433.617 35.3947 437.585 31.1707 442.62 28.184C447.74 25.1973 453.457 23.704 459.772 23.704C465.831 23.704 471.121 25.0693 475.644 27.8C480.252 30.4453 483.623 33.7307 485.756 37.656V24.856H497.532V128.28H485.756V82.072C483.537 85.9973 480.124 89.3253 475.516 92.056C470.908 94.7867 465.532 96.152 459.388 96.152C453.244 96.152 447.655 94.616 442.62 91.544C437.585 88.472 433.617 84.1627 430.716 78.616C427.815 73.0693 426.364 66.7547 426.364 59.672ZM485.756 59.8C485.756 54.5093 484.689 49.9013 482.556 45.976C480.423 42.0507 477.521 39.064 473.852 37.016C470.268 34.8827 466.3 33.816 461.948 33.816C457.596 33.816 453.628 34.84 450.044 36.888C446.46 38.936 443.601 41.9227 441.468 45.848C439.335 49.7733 438.268 54.3813 438.268 59.672C438.268 65.048 439.335 69.7413 441.468 73.752C443.601 77.6773 446.46 80.7067 450.044 82.84C453.628 84.888 457.596 85.912 461.948 85.912C466.3 85.912 470.268 84.888 473.852 82.84C477.521 80.7067 480.423 77.6773 482.556 73.752C484.689 69.7413 485.756 65.0907 485.756 59.8ZM567.904 24.856V95H556.256V84.632C554.037 88.216 550.923 91.032 546.912 93.08C542.987 95.0427 538.635 96.024 533.856 96.024C528.395 96.024 523.488 94.9147 519.136 92.696C514.784 90.392 511.328 86.9787 508.768 82.456C506.293 77.9333 505.056 72.4293 505.056 65.944V24.856H516.576V64.408C516.576 71.32 518.325 76.6533 521.824 80.408C525.323 84.0773 530.101 85.912 536.16 85.912C542.389 85.912 547.296 83.992 550.88 80.152C554.464 76.312 556.256 70.7227 556.256 63.384V24.856H567.904ZM571.699 59.672C571.699 52.504 573.15 46.232 576.051 40.856C578.952 35.3947 582.92 31.1707 587.955 28.184C593.075 25.1973 598.75 23.704 604.979 23.704C611.123 23.704 616.456 25.0267 620.979 27.672C625.502 30.3173 628.872 33.6453 631.091 37.656V24.856H642.867V95H631.091V81.944C628.787 86.04 625.331 89.4533 620.723 92.184C616.2 94.8293 610.91 96.152 604.851 96.152C598.622 96.152 592.99 94.616 587.955 91.544C582.92 88.472 578.952 84.1627 576.051 78.616C573.15 73.0693 571.699 66.7547 571.699 59.672ZM631.091 59.8C631.091 54.5093 630.024 49.9013 627.891 45.976C625.758 42.0507 622.856 39.064 619.187 37.016C615.603 34.8827 611.635 33.816 607.283 33.816C602.931 33.816 598.963 34.84 595.379 36.888C591.795 38.936 588.936 41.9227 586.803 45.848C584.67 49.7733 583.603 54.3813 583.603 59.672C583.603 65.048 584.67 69.7413 586.803 73.752C588.936 77.6773 591.795 80.7067 595.379 82.84C598.963 84.888 602.931 85.912 607.283 85.912C611.635 85.912 615.603 84.888 619.187 82.84C622.856 80.7067 625.758 77.6773 627.891 73.752C630.024 69.7413 631.091 65.0907 631.091 59.8ZM662.679 36.248C664.727 32.2373 667.628 29.1227 671.383 26.904C675.223 24.6853 679.874 23.576 685.335 23.576V35.608H682.263C669.207 35.608 662.679 42.6907 662.679 56.856V95H651.031V24.856H662.679V36.248ZM751.261 57.24C751.261 59.4587 751.133 61.8053 750.877 64.28H694.813C695.24 71.192 697.586 76.6107 701.853 80.536C706.205 84.376 711.453 86.296 717.597 86.296C722.632 86.296 726.813 85.144 730.141 82.84C733.554 80.4507 735.944 77.2933 737.309 73.368H749.853C747.976 80.1093 744.221 85.6133 738.589 89.88C732.957 94.0613 725.96 96.152 717.597 96.152C710.941 96.152 704.968 94.6587 699.677 91.672C694.472 88.6853 690.376 84.4613 687.389 79C684.402 73.4533 682.909 67.0533 682.909 59.8C682.909 52.5467 684.36 46.1893 687.261 40.728C690.162 35.2667 694.216 31.0853 699.421 28.184C704.712 25.1973 710.77 23.704 717.597 23.704C724.253 23.704 730.141 25.1547 735.261 28.056C740.381 30.9573 744.306 34.968 747.037 40.088C749.853 45.1227 751.261 50.84 751.261 57.24ZM739.229 54.808C739.229 50.3707 738.248 46.5733 736.285 43.416C734.322 40.1733 731.634 37.7413 728.221 36.12C724.893 34.4133 721.181 33.56 717.085 33.56C711.197 33.56 706.162 35.4373 701.981 39.192C697.885 42.9467 695.538 48.152 694.941 54.808H739.229ZM750.764 59.672C750.764 52.504 752.215 46.232 755.116 40.856C758.017 35.3947 761.985 31.1707 767.02 28.184C772.14 25.1973 777.857 23.704 784.172 23.704C789.633 23.704 794.711 24.984 799.404 27.544C804.097 30.0187 807.681 33.304 810.156 37.4V0.279999H821.932V95H810.156V81.816C807.852 85.9973 804.439 89.4533 799.916 92.184C795.393 94.8293 790.103 96.152 784.044 96.152C777.815 96.152 772.14 94.616 767.02 91.544C761.985 88.472 758.017 84.1627 755.116 78.616C752.215 73.0693 750.764 66.7547 750.764 59.672ZM810.156 59.8C810.156 54.5093 809.089 49.9013 806.956 45.976C804.823 42.0507 801.921 39.064 798.252 37.016C794.668 34.8827 790.7 33.816 786.348 33.816C781.996 33.816 778.028 34.84 774.444 36.888C770.86 38.936 768.001 41.9227 765.868 45.848C763.735 49.7733 762.668 54.3813 762.668 59.672C762.668 65.048 763.735 69.7413 765.868 73.752C768.001 77.6773 770.86 80.7067 774.444 82.84C778.028 84.888 781.996 85.912 786.348 85.912C790.7 85.912 794.668 84.888 798.252 82.84C801.921 80.7067 804.823 77.6773 806.956 73.752C809.089 69.7413 810.156 65.0907 810.156 59.8Z" fill="white"/>
</svg>
