<svg width="28" height="41" viewBox="0 0 28 41" fill="none" xmlns="http://www.w3.org/2000/svg">
<path d="M0.879364 26.1292C0.879364 23.4092 1.4927 20.9692 2.71936 18.8092C3.94603 16.6226 5.6127 14.9159 7.71936 13.6892C9.8527 12.4626 12.2127 11.8492 14.7994 11.8492C17.8394 11.8492 20.4927 12.5826 22.7594 14.0492C25.026 15.5159 26.6794 17.5959 27.7194 20.2892H23.3594C22.586 18.6092 21.466 17.3159 19.9994 16.4092C18.5594 15.5026 16.826 15.0492 14.7994 15.0492C12.8527 15.0492 11.106 15.5026 9.55936 16.4092C8.0127 17.3159 6.79936 18.6092 5.91936 20.2892C5.03936 21.9426 4.59936 23.8892 4.59936 26.1292C4.59936 28.3426 5.03936 30.2892 5.91936 31.9692C6.79936 33.6226 8.0127 34.9026 9.55936 35.8092C11.106 36.7159 12.8527 37.1692 14.7994 37.1692C16.826 37.1692 18.5594 36.7292 19.9994 35.8492C21.466 34.9425 22.586 33.6492 23.3594 31.9692H27.7194C26.6794 34.6359 25.026 36.7026 22.7594 38.1692C20.4927 39.6092 17.8394 40.3292 14.7994 40.3292C12.2127 40.3292 9.8527 39.7292 7.71936 38.5292C5.6127 37.3026 3.94603 35.6092 2.71936 33.4492C1.4927 31.2892 0.879364 28.8492 0.879364 26.1292Z" fill="#D2E6DB"/>
<path d="M0.879364 14.4427C0.879364 11.7227 1.4927 9.28272 2.71936 7.12272C3.94603 4.93605 5.6127 3.22938 7.71936 2.00272C9.8527 0.776049 12.2127 0.162716 14.7994 0.162716C17.8394 0.162716 20.4927 0.896049 22.7594 2.36272C25.026 3.82938 26.6794 5.90938 27.7194 8.60272H23.3594C22.586 6.92272 21.466 5.62938 19.9994 4.72272C18.5594 3.81605 16.826 3.36272 14.7994 3.36272C12.8527 3.36272 11.106 3.81605 9.55936 4.72272C8.0127 5.62938 6.79936 6.92272 5.91936 8.60272C5.03936 10.256 4.59936 12.2027 4.59936 14.4427C4.59936 16.656 5.03936 18.6027 5.91936 20.2827C6.79936 21.9361 8.0127 23.2161 9.55936 24.1227C11.106 25.0294 12.8527 25.4827 14.7994 25.4827C16.826 25.4827 18.5594 25.0427 19.9994 24.1627C21.466 23.256 22.586 21.9627 23.3594 20.2827H27.7194C26.6794 22.9494 25.026 25.0161 22.7594 26.4827C20.4927 27.9227 17.8394 28.6427 14.7994 28.6427C12.2127 28.6427 9.8527 28.0427 7.71936 26.8427C5.6127 25.616 3.94603 23.9227 2.71936 21.7627C1.4927 19.6027 0.879364 17.1627 0.879364 14.4427Z" fill="#D2E6DB"/>
</svg>
