<svg width="601" height="901" viewBox="0 0 601 901" fill="none" xmlns="http://www.w3.org/2000/svg">
<path d="M0.183762 582.59C0.183762 521.643 13.8946 466.971 41.3164 418.573C68.7382 369.576 105.996 331.336 153.09 303.85C200.78 276.364 253.537 262.622 311.361 262.622C379.319 262.622 438.634 279.053 489.304 311.916C539.975 344.78 576.935 391.386 600.184 451.734H502.717C485.43 414.091 460.392 385.112 427.606 364.796C395.415 344.481 356.667 334.323 311.361 334.323C267.844 334.323 228.798 344.481 194.222 364.796C159.647 385.112 132.524 414.091 112.851 451.734C93.1793 488.78 83.3432 532.399 83.3432 582.59C83.3432 632.183 93.1793 675.802 112.851 713.445C132.524 750.491 159.647 779.171 194.222 799.487C228.798 819.802 267.844 829.96 311.361 829.96C356.667 829.96 395.415 820.101 427.606 800.383C460.392 780.068 485.43 751.088 502.717 713.445H600.184C576.935 773.196 539.975 819.504 489.304 852.367C438.634 884.633 379.319 900.765 311.361 900.765C253.537 900.765 200.78 887.321 153.09 860.433C105.996 832.948 68.7382 795.006 41.3164 746.607C13.8946 698.208 0.183762 643.536 0.183762 582.59Z" fill="white"/>
<path d="M0.183762 320.733C0.183762 259.787 13.8946 205.115 41.3164 156.716C68.7382 107.72 105.996 69.4793 153.09 41.9937C200.78 14.5081 253.537 0.76532 311.361 0.76532C379.319 0.76532 438.634 17.1969 489.304 50.0601C539.975 82.9233 576.935 129.529 600.184 189.878H502.717C485.43 152.235 460.392 123.255 427.606 102.94C395.415 82.6246 356.667 72.4668 311.361 72.4668C267.844 72.4668 228.798 82.6246 194.222 102.94C159.647 123.255 132.524 152.235 112.851 189.878C93.1793 226.924 83.3432 270.542 83.3432 320.733C83.3432 370.327 93.1793 413.945 112.851 451.589C132.524 488.635 159.647 517.315 194.222 537.631C228.798 557.946 267.844 568.104 311.361 568.104C356.667 568.104 395.415 558.245 427.606 538.527C460.392 518.211 485.43 489.232 502.717 451.589H600.184C576.935 511.34 539.975 557.647 489.304 590.511C438.634 622.776 379.319 638.909 311.361 638.909C253.537 638.909 200.78 625.465 153.09 598.577C105.996 571.091 68.7382 533.149 41.3164 484.751C13.8946 436.352 0.183762 381.68 0.183762 320.733Z" fill="white"/>
</svg>